PathFileType	4	(X/Y/Z)	/Users/itak/Documents/Research/Walk-IL/dataset/trc/00083_00006.trc
DataRate	CameraRate	NumFrames	NumMarkers	Units	OrigDataRate	OrigDataStartFrame	OrigNumFrames
100.000000	100.000000	4	53	mm	100.000000	316	507
Frame#	Time	RPSI			LPSI			L3			STRN			T10			C7			CLAV			RBAK			LBAK			LSHO			LUPA			LAEL			LAOL			LWTS			LWPS			LFRA			LIFD			LHPS			LHTS			RSHO			RUPA			RAEL			RAOL			RWTS			RWPS			RFRA			RIFD			RHTS			RHPS			RBHD			LFHD			RFHD			LBHD			LHIP			RHIP			RASI			LASI			LKNE			LTHI			LANK			LTIP			LTOE			LMT1			LMT5			LHEE			RKNE			RTHI			RANK			RTIP			RTOE			RMT1			RMT5			RHEE			
		X1	Y1	Z1	X2	Y2	Z2	X3	Y3	Z3	X4	Y4	Z4	X5	Y5	Z5	X6	Y6	Z6	X7	Y7	Z7	X8	Y8	Z8	X9	Y9	Z9	X10	Y10	Z10	X11	Y11	Z11	X12	Y12	Z12	X13	Y13	Z13	X14	Y14	Z14	X15	Y15	Z15	X16	Y16	Z16	X17	Y17	Z17	X18	Y18	Z18	X19	Y19	Z19	X20	Y20	Z20	X21	Y21	Z21	X22	Y22	Z22	X23	Y23	Z23	X24	Y24	Z24	X25	Y25	Z25	X26	Y26	Z26	X27	Y27	Z27	X28	Y28	Z28	X29	Y29	Z29	X30	Y30	Z30	X31	Y31	Z31	X32	Y32	Z32	X33	Y33	Z33	X34	Y34	Z34	X35	Y35	Z35	X36	Y36	Z36	X37	Y37	Z37	X38	Y38	Z38	X39	Y39	Z39	X40	Y40	Z40	X41	Y41	Z41	X42	Y42	Z42	X43	Y43	Z43	X44	Y44	Z44	X45	Y45	Z45	X46	Y46	Z46	X47	Y47	Z47	X48	Y48	Z48	X49	Y49	Z49	X50	Y50	Z50	X51	Y51	Z51	X52	Y52	Z52	X53	Y53	Z53	

317	3.16	-27.94109344482422	1005.382751464844	279.6129455566406	-144.1452789306641	985.6287841796875	148.3615570068359	-84.53602600097656	1055.321044921875	211.4658966064453	113.3739624023438	1248.44921875	46.42742156982422	-91.30562591552734	1189.041137695312	222.5408935546875	-37.75383377075195	1454.810302734375	183.5326995849609	92.29985809326172	1363.90087890625	63.60792922973633	-38.61326217651367	1316.105224609375	280.7652282714844	-123.8297805786133	1421.207641601562	125.2368545532227	-97.41562652587891	1424.88232421875	1.987122416496277	-177.8442687988281	1306.348876953125	-36.91170883178711	-216.3165588378906	1097.118774414062	-54.59902954101562	-193.2962188720703	1081.942626953125	50.48259735107422	-162.2961273193359	840.0031127929688	-73.89590454101562	-246.8891754150391	847.1504516601562	-66.73052978515625	-231.7187652587891	988.4302368164062	-70.40803527832031	-183.3815307617188	654.1464233398438	-56.3540153503418	-241.8401641845703	762.5308837890625	-83.52513885498047	-170.2828521728516	754.4208374023438	-88.63859558105469	124.6758193969727	1413.38720703125	270.1222229003906	160.9089508056641	1345.543579101562	324.1736450195312	199.6443939208984	1081.483764648438	366.2926635742188	148.8121337890625	1054.64794921875	284.6755065917969	320.435302734375	862.240478515625	213.2443389892578	313.0399475097656	835.4962158203125	296.1001892089844	230.2159881591797	1004.063354492188	356.6669311523438	353.2826538085938	679.6381225585938	178.1435089111328	357.9323120117188	770.0223999023438	185.1941833496094	359.1222534179688	759.2653198242188	261.6979064941406	-34.58599853515625	1631.256958007812	145.0957183837891	156.6172180175781	1660.636108398438	50.31275177001953	46.47418594360352	1662.972778320312	-10.76671504974365	89.55344390869141	1621.19580078125	203.0782012939453	-115.6691055297852	925.5526733398438	9.997097015380859	71.13193511962891	936.3150634765625	300.1535949707031	157.1460571289062	945.6251831054688	206.9812622070312	5.472806930541992	937.6272583007812	-11.75436782836914	97.15083312988281	505.6477966308594	-63.0203742980957	0.9572247862815857	617.2919311523438	-51.27447891235352	174.7849273681641	44.39263153076172	-90.31474304199219	120.9439239501953	262.8648986816406	-80.98619079589844	300.802001953125	127.0403137207031	-221.6092529296875	312.5931701660156	104.7458038330078	-156.0688934326172	211.5937652587891	71.70574188232422	-187.9389038085938	198.8326263427734	34.01425933837891	-2.296918630599976	53.37195205688477	494.9219665527344	283.291748046875	118.1001205444336	759.2700805664062	270.5764465332031	-149.0652770996094	58.47268676757812	410.9596252441406	7.941236019134521	380.8569030761719	321.8666076660156	13.00951099395752	35.37924957275391	267.5578002929688	-58.41890716552734	45.79295349121094	265.0833129882812	-36.72938919067383	42.70520401000977	361.2295837402344	-217.2412567138672	73.30242919921875	386.6072998046875	
318	3.17	-19.31083679199219	1004.494689941406	273.104736328125	-136.4066009521484	984.551513671875	142.5035552978516	-76.37705993652344	1053.928344726562	205.2824249267578	119.5192337036133	1247.736694335938	38.76691818237305	-83.41855621337891	1187.53369140625	216.5813751220703	-31.14602661132812	1453.566162109375	177.3383178710938	98.24322509765625	1363.129516601562	56.13269805908203	-30.85872650146484	1314.790893554688	274.5654296875	-117.6468200683594	1419.662353515625	119.7633590698242	-92.44995880126953	1423.46875	-3.736016511917114	-172.8634033203125	1304.718872070312	-41.78610992431641	-211.2783355712891	1095.42431640625	-58.68663787841797	-187.1279754638672	1080.623657226562	46.24149703979492	-158.513916015625	838.16845703125	-78.07669830322266	-243.060302734375	845.7937622070312	-70.205078125	-227.1453399658203	986.9315185546875	-74.20916748046875	-180.797607421875	652.375	-59.84984970092773	-238.7533569335938	761.122802734375	-86.86308288574219	-167.2490386962891	752.5091552734375	-92.45575714111328	131.9779663085938	1412.51416015625	262.5650024414062	168.7794799804688	1344.558471679688	316.1461486816406	208.3716735839844	1080.59130859375	357.3902893066406	157.7675170898438	1053.657348632812	275.2518615722656	329.6101989746094	862.6492919921875	202.9372253417969	322.6521301269531	835.4286499023438	285.6990356445312	239.3289337158203	1003.308898925781	347.4748229980469	363.50439453125	680.4699096679688	166.7735137939453	367.6614990234375	770.8657836914062	174.3008575439453	369.1624145507812	759.7060546875	250.7493591308594	-28.88506317138672	1630.1845703125	138.9760284423828	161.9412078857422	1660.17041015625	43.59971618652344	51.58311462402344	1662.489624023438	-17.07911491394043	95.55681610107422	1620.160888671875	196.4911499023438	-108.6069869995117	924.3310546875	4.061941623687744	79.72998046875	935.33935546875	293.0422668457031	165.4625701904297	944.7025756835938	199.3144073486328	12.40475177764893	936.551025390625	-18.42858695983887	104.7519683837891	504.8092346191406	-69.42221832275391	9.196660041809082	616.7821655273438	-57.67162704467773	178.4157562255859	42.98023986816406	-92.53509521484375	126.8728332519531	261.0098266601562	-85.41789245605469	304.8906860351562	121.5797119140625	-225.5530548095703	316.6752319335938	99.88947296142578	-159.8362884521484	215.0162353515625	68.28886413574219	-190.6311798095703	202.9753265380859	33.30009460449219	-4.496415615081787	60.16967010498047	494.1848754882812	277.7860107421875	125.8838882446289	758.241455078125	263.844970703125	-147.8345031738281	61.41740798950195	411.0862426757812	13.57133293151855	380.8506774902344	317.8799743652344	12.97185039520264	35.37065505981445	267.4600219726562	-58.05143356323242	46.13531112670898	265.07666015625	-35.97650146484375	43.18356704711914	361.1248168945312	-215.8289184570312	77.45235443115234	386.75244140625	
319	3.18	-10.60288047790527	1003.757080078125	266.3838500976562	-128.6126861572266	983.7096557617188	136.461669921875	-68.13494873046875	1052.686767578125	198.9065246582031	125.6586303710938	1247.241943359375	30.91596603393555	-75.456298828125	1186.195434570312	210.453369140625	-24.54144859313965	1452.5068359375	171.0118713378906	104.1609039306641	1362.55126953125	48.50271987915039	-23.06143760681152	1313.630493164062	268.21435546875	-111.4370803833008	1418.287353515625	114.1511001586914	-87.50376892089844	1422.238159179688	-9.57708740234375	-167.8361968994141	1303.26123046875	-46.79549789428711	-206.0957641601562	1093.865966796875	-62.94415283203125	-180.7726440429688	1079.45947265625	41.84236526489258	-154.4308624267578	836.5060424804688	-82.40162658691406	-238.8987426757812	844.5549926757812	-73.80568695068359	-222.38623046875	985.5709228515625	-78.14794921875	-177.7434539794922	650.7938232421875	-63.57529449462891	-235.2675170898438	759.8540649414062	-90.35466766357422	-163.8600158691406	750.7919311523438	-96.4737548828125	139.2889862060547	1411.82568359375	254.8490295410156	176.6103668212891	1343.737182617188	307.9349365234375	216.8236389160156	1079.882934570312	348.4183959960938	166.3208465576172	1052.909301757812	265.9722290039062	338.3866577148438	863.125	192.6688842773438	331.7977905273438	835.4314575195312	275.31884765625	248.096435546875	1002.704162597656	338.2640686035156	373.1580810546875	681.3489990234375	155.4603271484375	376.9249877929688	771.750244140625	163.4724426269531	378.6712036132812	760.1793212890625	239.864013671875	-23.24749565124512	1629.289794921875	132.7395324707031	167.2171173095703	1659.951416015625	36.8160514831543	56.66168975830078	1662.232177734375	-23.47832107543945	101.5023193359375	1619.325439453125	189.8222045898438	-101.5092620849609	923.3868408203125	-2.051202774047852	88.39305114746094	934.45263671875	285.7173461914062	173.8132476806641	943.904052734375	191.3919525146484	19.32501792907715	935.7236328125	-25.29398918151855	112.4976272583008	504.17529296875	-76.02091217041016	17.52270126342773	616.5569458007812	-64.36670684814453	181.2400817871094	41.802001953125	-94.10844421386719	132.6832275390625	259.2800903320312	-89.75797271728516	308.7832336425781	115.1135177612305	-228.8866424560547	320.3196411132812	94.21353149414062	-162.9057312011719	217.8870391845703	64.57817077636719	-192.6709136962891	206.1785278320312	32.93280410766602	-6.003599643707275	67.22865295410156	493.5097961425781	271.9700622558594	133.7685852050781	757.297119140625	256.8360595703125	-146.3802337646484	64.70293426513672	411.1712951660156	19.4610424041748	380.9779663085938	313.6438293457031	12.90292263031006	35.37612533569336	267.3634033203125	-57.62228775024414	46.54220962524414	265.0523376464844	-35.10465621948242	43.71144866943359	361.0146789550781	-214.1554870605469	82.06382751464844	386.8147583007812	
320	3.19	-1.804810047149658	1003.185241699219	259.4639282226562	-120.7801132202148	983.152587890625	130.264404296875	-59.80791473388672	1051.631225585938	192.3530883789062	131.7841339111328	1246.99267578125	22.88503456115723	-67.42646026611328	1185.074096679688	204.1780548095703	-17.93220138549805	1451.669921875	164.5648803710938	110.0521926879883	1362.196411132812	40.73313903808594	-15.22571277618408	1312.663452148438	261.7227783203125	-105.2052230834961	1417.126220703125	108.4093704223633	-82.56344604492188	1421.225830078125	-15.52775478363037	-162.7555847167969	1302.006225585938	-51.9325065612793	-200.7758636474609	1092.482421875	-67.37398529052734	-174.2119445800781	1078.44775390625	37.2839241027832	-150.0473480224609	835.0445556640625	-86.8951416015625	-234.4163055419922	843.4597778320312	-77.53739929199219	-217.4447937011719	984.369384765625	-82.22853851318359	-174.2020111083984	649.4232177734375	-67.53478240966797	-231.3733215332031	758.7423706054688	-93.99153137207031	-160.1135559082031	749.2894287109375	-100.7018051147461	146.6224670410156	1411.345092773438	246.9817352294922	184.4091339111328	1343.100341796875	299.5537109375	225.0166931152344	1079.379760742188	339.4001770019531	174.4946594238281	1052.413452148438	256.8272705078125	346.7516784667969	863.6663208007812	182.4587554931641	340.4699401855469	835.5045776367188	264.9828186035156	256.5256958007812	1002.258972167969	329.047119140625	382.2326049804688	682.2806396484375	144.2238311767578	385.6962585449219	772.6734008789062	152.7236175537109	387.6300048828125	760.6804809570312	229.05615234375	-17.66133499145508	1628.602172851562	126.3887405395508	172.4555053710938	1660.003662109375	29.95895385742188	61.71614837646484	1662.22900390625	-29.96563339233398	107.397834777832	1618.720825195312	183.0704193115234	-94.39988708496094	922.7784423828125	-8.327598571777344	97.12709808349609	933.66552734375	278.1806335449219	182.1388244628906	943.2244262695312	183.2427368164062	26.20806694030762	935.194580078125	-32.35592651367188	120.3159027099609	503.7930603027344	-82.74776458740234	25.82549476623535	616.6117553710938	-71.27348327636719	183.5084686279297	40.95083999633789	-95.27009582519531	138.4528198242188	257.8071594238281	-94.12635803222656	312.6350708007812	107.9613418579102	-231.7855987548828	323.6910400390625	88.04531097412109	-165.4602813720703	220.4209747314453	60.80446624755859	-194.2677154541016	208.6862182617188	32.99361038208008	-7.065261363983154	74.62055969238281	492.9008178710938	265.784912109375	141.7680816650391	756.4540405273438	249.5074310302734	-144.6533813476562	68.37442016601562	411.1866149902344	25.68017959594727	381.252685546875	309.1058654785156	12.79061412811279	35.39650726318359	267.2784729003906	-57.12442016601562	47.01641082763672	265.0026245117188	-34.10899353027344	44.2706184387207	360.8866882324219	-212.1359100341797	87.19544219970703	386.7566223144531	
